<svg width="41" height="41" viewBox="0 0 41 41" fill="none" xmlns="http://www.w3.org/2000/svg">
<circle cx="20.5" cy="20.5" r="20.5" fill="#FFE49A"/>
<path d="M28.4342 14.3123L18.5127 24.2327C18.8069 24.6539 19.0571 25.1088 19.258 25.5908L21.7335 31.5508L28.4342 14.3123ZM16.7669 22.4871L26.6897 12.5654L9.44798 19.2654L15.4086 21.7419C15.8871 21.9403 16.3425 22.1902 16.7669 22.4871ZM31.8247 12.2985L24.0133 32.3932C23.5208 33.6632 22.099 34.3151 20.8392 33.8498C20.5323 33.7364 20.2522 33.5608 20.0165 33.334C19.7807 33.1072 19.5944 32.8341 19.4692 32.5319L16.9937 26.5719C16.5121 25.4104 15.5891 24.4875 14.4275 24.0059L8.46556 21.5307C7.2291 21.0162 6.66401 19.5868 7.20577 18.3349C7.33861 18.029 7.53069 17.7525 7.77093 17.5211C8.01117 17.2898 8.29482 17.1083 8.60553 16.9871L28.7025 9.17396C29.1392 8.998 29.618 8.95434 30.0793 9.0484C30.5406 9.14246 30.964 9.37009 31.297 9.70296C31.6299 10.0358 31.8575 10.4593 31.9516 10.9205C32.0457 11.3818 32.002 11.8605 31.826 12.2972L31.8247 12.2985Z" fill="white"/>
</svg>
